<?xml version="1.0" encoding="UTF-8" standalone="no"?>
<!-- Created with Inkscape (http://www.inkscape.org/) -->

<svg
   xmlns:dc="http://purl.org/dc/elements/1.1/"
   xmlns:cc="http://creativecommons.org/ns#"
   xmlns:rdf="http://www.w3.org/1999/02/22-rdf-syntax-ns#"
   xmlns:svg="http://www.w3.org/2000/svg"
   xmlns="http://www.w3.org/2000/svg"
   xmlns:sodipodi="http://sodipodi.sourceforge.net/DTD/sodipodi-0.dtd"
   xmlns:inkscape="http://www.inkscape.org/namespaces/inkscape"
   width="120mm"
   height="12.71mm"
   viewBox="0 0 120 12.71"
   version="1.1"
   id="svg8"
   inkscape:version="0.92.2 (5c3e80d, 2017-08-06)"
   sodipodi:docname="memory_logo.svg">
  <defs
     id="defs2" />
  <sodipodi:namedview
     id="base"
     pagecolor="#ffffff"
     bordercolor="#666666"
     borderopacity="1.0"
     inkscape:pageopacity="0.0"
     inkscape:pageshadow="2"
     inkscape:zoom="2.8"
     inkscape:cx="403.31229"
     inkscape:cy="-37.271881"
     inkscape:document-units="mm"
     inkscape:current-layer="layer1"
     showgrid="false"
     inkscape:measure-start="0,0"
     inkscape:measure-end="0,0"
     inkscape:window-width="1865"
     inkscape:window-height="1025"
     inkscape:window-x="55"
     inkscape:window-y="27"
     inkscape:window-maximized="1" />
  <metadata
     id="metadata5">
    <rdf:RDF>
      <cc:Work
         rdf:about="">
        <dc:format>image/svg+xml</dc:format>
        <dc:type
           rdf:resource="http://purl.org/dc/dcmitype/StillImage" />
        <dc:title></dc:title>
      </cc:Work>
    </rdf:RDF>
  </metadata>
  <g
     inkscape:label="Layer 1"
     inkscape:groupmode="layer"
     id="layer1"
     transform="translate(0,-284.29)">
    <g
       aria-label="MEMORY GAME"
       style="font-style:normal;font-variant:normal;font-weight:normal;font-stretch:normal;font-size:10.58333302px;line-height:1.25;font-family:Ubuntu;-inkscape-font-specification:Ubuntu;letter-spacing:0px;word-spacing:0px;fill:#000000;fill-opacity:1;stroke:#000018;stroke-width:1;stroke-miterlimit:4;stroke-dasharray:none;stroke-opacity:1"
       id="text817"
       transform="matrix(1.3871738,0,0,1.3871738,-45.843493,130.9649)">
      <path
         d="m 35.597292,111.44998 q 0.232834,0.40217 0.518584,0.98425 0.28575,0.58209 0.582083,1.22767 0.296333,0.635 0.582083,1.30175 0.296334,0.65617 0.53975,1.21708 0.243417,-0.56091 0.529167,-1.21708 0.28575,-0.66675 0.582083,-1.30175 0.296334,-0.64558 0.582084,-1.22767 0.28575,-0.58208 0.518583,-0.98425 h 1.2065 q 0.09525,0.80434 0.179916,1.7145 0.08467,0.89959 0.148167,1.85209 0.07408,0.94191 0.127,1.905 0.0635,0.9525 0.105833,1.86266 h -1.312333 q -0.04233,-1.28058 -0.105833,-2.63525 -0.05292,-1.35466 -0.169333,-2.62466 -0.116417,0.24341 -0.275167,0.58208 -0.15875,0.33867 -0.338667,0.74083 -0.179916,0.39159 -0.370416,0.81492 -0.179917,0.42333 -0.359834,0.8255 -0.169333,0.39158 -0.3175,0.74083 -0.148166,0.33867 -0.254,0.58209 h -0.994833 q -0.105833,-0.24342 -0.254,-0.59267 -0.148167,-0.34925 -0.328083,-0.74083 -0.169334,-0.40217 -0.359834,-0.8255 -0.179916,-0.42334 -0.359833,-0.81492 -0.179917,-0.39158 -0.338667,-0.73025 -0.15875,-0.34925 -0.275166,-0.58208 -0.116417,1.27 -0.179917,2.62466 -0.05292,1.35467 -0.09525,2.63525 h -1.312333 q 0.04233,-0.91016 0.09525,-1.88383 0.0635,-0.97367 0.127,-1.92617 0.07408,-0.96308 0.15875,-1.86266 0.08467,-0.89959 0.179916,-1.66159 z"
         style="font-style:normal;font-variant:normal;font-weight:500;font-stretch:normal;font-family:Ubuntu;-inkscape-font-specification:'Ubuntu Medium';letter-spacing:0.71437508px;fill:#000000;fill-opacity:1;stroke:#000018;stroke-width:1;stroke-miterlimit:4;stroke-dasharray:none;stroke-opacity:1"
         id="path857"
         inkscape:connector-curvature="0" />
      <path
         d="m 44.077354,118.78423 v -7.33425 h 4.709583 v 1.13242 h -3.376083 v 1.80975 h 3.005667 v 1.11125 h -3.005667 v 2.14842 h 3.630083 v 1.13241 z"
         style="font-style:normal;font-variant:normal;font-weight:500;font-stretch:normal;font-family:Ubuntu;-inkscape-font-specification:'Ubuntu Medium';letter-spacing:0.71437508px;fill:#000000;fill-opacity:1;stroke:#000018;stroke-width:1;stroke-miterlimit:4;stroke-dasharray:none;stroke-opacity:1"
         id="path859"
         inkscape:connector-curvature="0" />
      <path
         d="m 52.590985,111.44998 q 0.232833,0.40217 0.518583,0.98425 0.28575,0.58209 0.582083,1.22767 0.296334,0.635 0.582084,1.30175 0.296333,0.65617 0.53975,1.21708 0.243416,-0.56091 0.529166,-1.21708 0.28575,-0.66675 0.582084,-1.30175 0.296333,-0.64558 0.582083,-1.22767 0.28575,-0.58208 0.518583,-0.98425 h 1.2065 q 0.09525,0.80434 0.179917,1.7145 0.08467,0.89959 0.148167,1.85209 0.07408,0.94191 0.127,1.905 0.0635,0.9525 0.105833,1.86266 h -1.312333 q -0.04233,-1.28058 -0.105834,-2.63525 -0.05292,-1.35466 -0.169333,-2.62466 -0.116417,0.24341 -0.275167,0.58208 -0.15875,0.33867 -0.338666,0.74083 -0.179917,0.39159 -0.370417,0.81492 -0.179917,0.42333 -0.359833,0.8255 -0.169334,0.39158 -0.3175,0.74083 -0.148167,0.33867 -0.254,0.58209 h -0.994834 q -0.105833,-0.24342 -0.254,-0.59267 -0.148166,-0.34925 -0.328083,-0.74083 -0.169333,-0.40217 -0.359833,-0.8255 -0.179917,-0.42334 -0.359834,-0.81492 -0.179916,-0.39158 -0.338666,-0.73025 -0.15875,-0.34925 -0.275167,-0.58208 -0.116417,1.27 -0.179917,2.62466 -0.05292,1.35467 -0.09525,2.63525 h -1.312333 q 0.04233,-0.91016 0.09525,-1.88383 0.0635,-0.97367 0.127,-1.92617 0.07408,-0.96308 0.15875,-1.86266 0.08467,-0.89959 0.179917,-1.66159 z"
         style="font-style:normal;font-variant:normal;font-weight:500;font-stretch:normal;font-family:Ubuntu;-inkscape-font-specification:'Ubuntu Medium';letter-spacing:0.71437508px;fill:#000000;fill-opacity:1;stroke:#000018;stroke-width:1;stroke-miterlimit:4;stroke-dasharray:none;stroke-opacity:1"
         id="path861"
         inkscape:connector-curvature="0" />
      <path
         d="m 62.161129,115.11182 q 0,0.60325 0.148166,1.10066 0.148167,0.48684 0.423334,0.83609 0.28575,0.33866 0.687916,0.52916 0.402167,0.1905 0.910167,0.1905 0.497417,0 0.899583,-0.1905 0.402167,-0.1905 0.677334,-0.52916 0.28575,-0.34925 0.433916,-0.83609 0.148167,-0.49741 0.148167,-1.10066 0,-0.60325 -0.148167,-1.09009 -0.148166,-0.49741 -0.433916,-0.83608 -0.275167,-0.34925 -0.677334,-0.53975 -0.402166,-0.1905 -0.899583,-0.1905 -0.508,0 -0.910167,0.1905 -0.402166,0.1905 -0.687916,0.53975 -0.275167,0.34925 -0.423334,0.83608 -0.148166,0.48684 -0.148166,1.09009 z m 5.725583,0 q 0,0.94191 -0.28575,1.66158 -0.275167,0.71967 -0.762,1.2065 -0.47625,0.47625 -1.121833,0.71967 -0.645584,0.24341 -1.375834,0.24341 -0.73025,0 -1.386416,-0.24341 -0.645584,-0.24342 -1.132417,-0.71967 -0.47625,-0.48683 -0.762,-1.2065 -0.28575,-0.71967 -0.28575,-1.66158 0,-0.94192 0.28575,-1.651 0.28575,-0.71967 0.772583,-1.2065 0.497417,-0.48684 1.143,-0.73025 0.645584,-0.24342 1.36525,-0.24342 0.719667,0 1.36525,0.24342 0.645584,0.24341 1.121834,0.73025 0.486833,0.48683 0.772583,1.2065 0.28575,0.70908 0.28575,1.651 z"
         style="font-style:normal;font-variant:normal;font-weight:500;font-stretch:normal;font-family:Ubuntu;-inkscape-font-specification:'Ubuntu Medium';letter-spacing:0.71437508px;fill:#000000;fill-opacity:1;stroke:#000018;stroke-width:1;stroke-miterlimit:4;stroke-dasharray:none;stroke-opacity:1"
         id="path863"
         inkscape:connector-curvature="0" />
      <path
         d="m 72.075065,111.3759 q 1.5875,0 2.423583,0.58208 0.846667,0.58209 0.846667,1.778 0,1.49225 -1.471083,2.02142 0.201083,0.24342 0.455083,0.59267 0.254,0.34925 0.518583,0.762 0.264584,0.40216 0.508,0.83608 0.243417,0.42333 0.433917,0.83608 h -1.49225 q -0.201083,-0.381 -0.433917,-0.762 -0.232833,-0.39158 -0.47625,-0.75141 -0.232833,-0.37042 -0.465666,-0.68792 -0.232834,-0.32808 -0.433917,-0.58208 -0.148166,0.0106 -0.254,0.0106 -0.105833,0 -0.201083,0 h -0.645583 v 2.77283 h -1.3335 v -7.22841 q 0.486833,-0.10584 1.037166,-0.13759 0.550334,-0.0423 0.98425,-0.0423 z m 0.09525,1.15358 q -0.423333,0 -0.783166,0.0317 v 2.37067 h 0.582083 q 0.486833,0 0.85725,-0.0529 0.370416,-0.0529 0.613833,-0.1905 0.254,-0.13758 0.381,-0.37041 0.127,-0.23284 0.127,-0.59267 0,-0.33867 -0.127,-0.5715 -0.127,-0.23283 -0.370417,-0.37042 -0.232833,-0.13758 -0.560916,-0.1905 -0.328084,-0.0635 -0.719667,-0.0635 z"
         style="font-style:normal;font-variant:normal;font-weight:500;font-stretch:normal;font-family:Ubuntu;-inkscape-font-specification:'Ubuntu Medium';letter-spacing:0.71437508px;fill:#000000;fill-opacity:1;stroke:#000018;stroke-width:1;stroke-miterlimit:4;stroke-dasharray:none;stroke-opacity:1"
         id="path865"
         inkscape:connector-curvature="0" />
      <path
         d="m 79.827854,114.69907 q 0.47625,-0.79375 0.931333,-1.60867 0.455083,-0.81492 0.8255,-1.64042 h 1.481667 q -0.592667,1.12184 -1.23825,2.23309 -0.635,1.10066 -1.36525,2.2225 v 2.87866 h -1.3335 v -2.8575 q -0.73025,-1.13241 -1.375834,-2.24366 -0.645583,-1.11125 -1.238249,-2.23309 h 1.566333 q 0.370416,0.8255 0.814916,1.64042 0.4445,0.81492 0.931334,1.60867 z"
         style="font-style:normal;font-variant:normal;font-weight:500;font-stretch:normal;font-family:Ubuntu;-inkscape-font-specification:'Ubuntu Medium';letter-spacing:0.71437508px;fill:#000000;fill-opacity:1;stroke:#000018;stroke-width:1;stroke-miterlimit:4;stroke-dasharray:none;stroke-opacity:1"
         id="path867"
         inkscape:connector-curvature="0" />
      <path
         d="m 91.294069,112.4554 q -1.132417,0 -1.735667,0.70908 -0.592666,0.6985 -0.592666,1.94734 0,0.59266 0.137583,1.09008 0.148167,0.48683 0.423333,0.83608 0.28575,0.34925 0.6985,0.55034 0.423334,0.1905 0.98425,0.1905 0.34925,0 0.60325,-0.0212 0.254,-0.0318 0.402167,-0.0741 v -2.63525 h 1.3335 v 3.52425 q -0.275167,0.10583 -0.931333,0.23283 -0.656167,0.127 -1.513417,0.127 -0.79375,0 -1.449917,-0.254 -0.656166,-0.254 -1.121833,-0.74083 -0.455083,-0.48684 -0.709083,-1.19592 -0.254,-0.70908 -0.254,-1.62983 0,-0.92075 0.275166,-1.62984 0.28575,-0.70908 0.772584,-1.19591 0.486833,-0.49742 1.143,-0.75142 0.656166,-0.254 1.397,-0.254 0.508,0 0.899583,0.0741 0.402167,0.0635 0.687917,0.14817 0.28575,0.0847 0.465666,0.17992 0.1905,0.0952 0.264584,0.13758 l -0.402167,1.09008 q -0.3175,-0.1905 -0.79375,-0.3175 -0.465667,-0.13758 -0.98425,-0.13758 z"
         style="font-style:normal;font-variant:normal;font-weight:500;font-stretch:normal;font-family:Ubuntu;-inkscape-font-specification:'Ubuntu Medium';letter-spacing:0.71437508px;fill:#000000;fill-opacity:1;stroke:#000018;stroke-width:1;stroke-miterlimit:4;stroke-dasharray:none;stroke-opacity:1"
         id="path869"
         inkscape:connector-curvature="0" />
      <path
         d="m 100.68248,118.78423 q -0.14817,-0.43391 -0.30692,-0.85725 -0.15875,-0.42333 -0.30692,-0.86783 h -3.090331 q -0.148166,0.4445 -0.306916,0.87842 -0.148167,0.42333 -0.296334,0.84666 h -1.386416 q 0.41275,-1.17475 0.783166,-2.16958 0.370417,-0.99483 0.719667,-1.88383 0.359833,-0.889 0.709083,-1.69334 0.34925,-0.80433 0.719667,-1.5875 h 1.259417 q 0.370416,0.78317 0.719666,1.5875 0.349251,0.80434 0.698501,1.69334 0.35983,0.889 0.73025,1.88383 0.381,0.99483 0.79375,2.16958 z m -2.159004,-5.91608 q -0.243417,0.56092 -0.560917,1.36525 -0.306916,0.80433 -0.645583,1.74625 h 2.413 q -0.338667,-0.94192 -0.656167,-1.75683 -0.3175,-0.81492 -0.550333,-1.35467 z"
         style="font-style:normal;font-variant:normal;font-weight:500;font-stretch:normal;font-family:Ubuntu;-inkscape-font-specification:'Ubuntu Medium';letter-spacing:0.71437508px;fill:#000000;fill-opacity:1;stroke:#000018;stroke-width:1;stroke-miterlimit:4;stroke-dasharray:none;stroke-opacity:1"
         id="path871"
         inkscape:connector-curvature="0" />
      <path
         d="m 105.3613,111.44998 q 0.23283,0.40217 0.51858,0.98425 0.28575,0.58209 0.58209,1.22767 0.29633,0.635 0.58208,1.30175 0.29633,0.65617 0.53975,1.21708 0.24342,-0.56091 0.52917,-1.21708 0.28575,-0.66675 0.58208,-1.30175 0.29633,-0.64558 0.58208,-1.22767 0.28575,-0.58208 0.51859,-0.98425 h 1.2065 q 0.0953,0.80434 0.17991,1.7145 0.0847,0.89959 0.14817,1.85209 0.0741,0.94191 0.127,1.905 0.0635,0.9525 0.10583,1.86266 h -1.31233 q -0.0423,-1.28058 -0.10583,-2.63525 -0.0529,-1.35466 -0.16934,-2.62466 -0.11641,0.24341 -0.27516,0.58208 -0.15875,0.33867 -0.33867,0.74083 -0.17992,0.39159 -0.37042,0.81492 -0.17991,0.42333 -0.35983,0.8255 -0.16933,0.39158 -0.3175,0.74083 -0.14817,0.33867 -0.254,0.58209 h -0.99483 q -0.10584,-0.24342 -0.254,-0.59267 -0.14817,-0.34925 -0.32809,-0.74083 -0.16933,-0.40217 -0.35983,-0.8255 -0.17992,-0.42334 -0.35983,-0.81492 -0.17992,-0.39158 -0.33867,-0.73025 -0.15875,-0.34925 -0.27517,-0.58208 -0.11641,1.27 -0.17991,2.62466 -0.0529,1.35467 -0.0952,2.63525 h -1.31234 q 0.0423,-0.91016 0.0953,-1.88383 0.0635,-0.97367 0.127,-1.92617 0.0741,-0.96308 0.15875,-1.86266 0.0847,-0.89959 0.17992,-1.66159 z"
         style="font-style:normal;font-variant:normal;font-weight:500;font-stretch:normal;font-family:Ubuntu;-inkscape-font-specification:'Ubuntu Medium';letter-spacing:0.71437508px;fill:#000000;fill-opacity:1;stroke:#000018;stroke-width:1;stroke-miterlimit:4;stroke-dasharray:none;stroke-opacity:1"
         id="path873"
         inkscape:connector-curvature="0" />
      <path
         d="m 113.84136,118.78423 v -7.33425 h 4.70959 v 1.13242 h -3.37609 v 1.80975 h 3.00567 v 1.11125 h -3.00567 v 2.14842 h 3.63009 v 1.13241 z"
         style="font-style:normal;font-variant:normal;font-weight:500;font-stretch:normal;font-family:Ubuntu;-inkscape-font-specification:'Ubuntu Medium';letter-spacing:0.71437508px;fill:#000000;fill-opacity:1;stroke:#000018;stroke-width:1;stroke-miterlimit:4;stroke-dasharray:none;stroke-opacity:1"
         id="path875"
         inkscape:connector-curvature="0" />
    </g>
  </g>
</svg>
